:SAMPLES-PER-SECOND 30
:FULLY-SPECIFIED
:DEGREES
328
root  59.5146 38.3086 11.0304 -176.764 40.4187 178.288
RightUpLeg  -23.053 -16.1547 -1.11858
RightLeg  21.2236 1.86436 1.22438
RightFoot  -1.32222 0.292217 -3.43221
RightToes  2.91037e-010 0 -3.6325e-017
Spine  26.7179 -3.24235 12.4784
Spine1  13.2092 0.455283 -4.51174
HEad  29.0074 16.892 -103.542
LeftShoulder1  2.38954 -3.48511 -28.1211
LeftArm  6.45142 -30.6362 -61.482
LeftForeArm  28.294 -0.682972 -12.646
LeftHand  0.0115442 6.9136 3.07716
RightShoulder  0.702413 -1.23117 25.0558
RightArm  11.7113 29.023 63.4577
RightForeArm  -9.03879 3.41064 7.13523
RightHand  0.284989 -11.4166 -6.65833
LeftUpLeg  -24.5769 1.09478 2.28935
LeftLeg  27.7708 -0.615043 -0.0237057
LeftFoot  -2.62157 0.0666778 -0.641654
LeftToes  -7.53974e-010 3.3384e-011 -1.25048e-011
329
root  59.1544 38.3981 11.1937 -177.39 35.8748 177.941
RightUpLeg  -21.8688 -17.6449 -2.66534
RightLeg  20.2426 -0.854082 0.592946
RightFoot  -0.473515 0.284207 -3.01898
RightToes  2.91037e-010 0 -3.6325e-017
Spine  25.8709 -3.15985 12.5859
Spine1  12.9572 0.447698 -4.15262
HEad  29.2278 19.8913 -99.9385
LeftShoulder1  2.47289 -3.92004 -27.2154
LeftArm  9.14591 -26.6138 -60.2923
LeftForeArm  26.0319 -3.63992 -13.277
LeftHand  -0.0404226 4.5716 2.69339
RightShoulder  0.648249 -1.43535 25.5379
RightArm  14.2926 26.4612 62.4959
RightForeArm  -6.73017 7.05164 8.24342
RightHand  -0.220944 -2.16539 -8.03205
LeftUpLeg  -22.1235 3.29286 3.53348
LeftLeg  28.6508 -0.0635294 0.298041
LeftFoot  -3.09548 0.0161538 0.140913
LeftToes  -7.53974e-010 3.3384e-011 -1.25048e-011
330
root  58.7413 38.4578 11.2723 -178.014 31.0857 177.784
RightUpLeg  -20.4767 -18.7681 -4.55425
RightLeg  19.7867 -4.09956 -0.0818686
RightFoot  0.285459 0.24121 -2.34919
RightToes  2.91037e-010 0 -3.6325e-017
Spine  25.1262 -3.19657 12.9638
Spine1  12.645 0.329204 -3.70746
HEad  30.8308 22.6118 -95.0446
LeftShoulder1  2.4651 -3.95224 -26.992
LeftArm  13.8583 -23.3082 -59.0779
LeftForeArm  23.5648 -7.24269 -13.2241
LeftHand  -0.0259535 5.28365 3.56622
RightShoulder  0.616352 -1.54504 25.7304
RightArm  17.3266 24.5196 61.3821
RightForeArm  -7.10599 10.0115 8.68671
RightHand  -0.545431 2.63334 -8.00838
LeftUpLeg  -19.7475 4.52289 5.0977
LeftLeg  28.3114 0.421266 0.589602
LeftFoot  -3.53175 0.00446452 0.332337
LeftToes  -7.53974e-010 3.3384e-011 -1.25048e-011
331
root  58.3094 38.5404 11.3296 -178.387 26.058 177.493
RightUpLeg  -18.867 -20.339 -6.67396
RightLeg  18.8442 -7.24168 -0.392333
RightFoot  1.12252 0.159498 -1.39076
RightToes  2.91037e-010 0 -3.6325e-017
Spine  24.0512 -3.19883 12.8433
Spine1  12.4181 0.161348 -3.49052
HEad  31.4965 25.2758 -90.1616
LeftShoulder1  2.30749 -3.27325 -27.9742
LeftArm  16.6289 -21.7934 -57.0994
LeftForeArm  21.7295 -8.94006 -12.9188
LeftHand  -0.102809 2.15876 3.3242
RightShoulder  0.503117 -1.93357 26.4094
RightArm  21.9583 22.8192 59.9707
RightForeArm  -8.48725 13.6428 8.25291
RightHand  -0.665921 3.00722 -9.433
LeftUpLeg  -17.808 7.50071 6.33143
LeftLeg  26.2886 -0.0938863 0.273859
LeftFoot  -3.87184 -0.0203486 0.707908
LeftToes  -7.53974e-010 3.3384e-011 -1.25048e-011
332
root  57.8192 38.6143 11.3313 -178.744 20.7511 177.602
RightUpLeg  -16.2946 -21.2027 -8.97652
RightLeg  17.3474 -11.4547 -0.603929
RightFoot  1.95456 0.0219656 -0.0765026
RightToes  2.91037e-010 0 -3.6325e-017
Spine  23.4435 -3.35562 12.7332
Spine1  11.6804 -0.225296 -2.99
HEad  32.6852 27.4209 -85.0701
LeftShoulder1  2.30031 -3.41245 -27.2353
LeftArm  14.3153 -18.8701 -56.7252
LeftForeArm  21.5101 -10.1234 -11.924
LeftHand  -0.136854 1.24961 3.6217
RightShoulder  0.467877 -2.04236 26.4363
RightArm  26.514 21.2812 58.0416
RightForeArm  -10.3837 16.4359 7.5426
RightHand  -0.703574 3.73199 -9.19854
LeftUpLeg  -16.0881 10.9083 7.62749
LeftLeg  23.5382 1.80103 1.1874
LeftFoot  -3.75618 -0.0185691 0.615159
LeftToes  -7.53974e-010 3.3384e-011 -1.25048e-011
333
root  57.2754 38.7072 11.3021 -178.859 16.3737 177.485
RightUpLeg  -14.0712 -22.6269 -11.1241
RightLeg  15.5502 -14.1001 -0.351965
RightFoot  3.19523 -0.0943165 0.915772
RightToes  2.91037e-010 0 -3.6325e-017
Spine  22.6485 -3.02369 11.7845
Spine1  11.4404 -0.22068 -2.65346
HEad  33.2274 29.1178 -80.1266
LeftShoulder1  2.08391 -2.48522 -28.7692
LeftArm  14.4688 -18.2066 -54.9847
LeftForeArm  18.6434 -11.1807 -11.38
LeftHand  -0.183965 1.01 4.61811
RightShoulder  0.40866 -2.22694 26.5261
RightArm  27.836 19.9807 55.7853
RightForeArm  -10.1461 18.4976 6.59128
RightHand  -0.660799 4.19123 -8.26162
LeftUpLeg  -14.8831 17.8307 7.98167
LeftLeg  20.7232 5.63383 2.64613
LeftFoot  -3.25388 -0.0863099 1.49432
LeftToes  -7.53974e-010 3.3384e-011 -1.25048e-011
